<mxfile host="app.diagrams.net" agent="Mozilla/5.0 (Windows NT 10.0; Win64; x64) AppleWebKit/537.36 (KHTML, like Gecko) Chrome/130.0.0.0 Safari/537.36" version="24.8.6">
  <diagram name="Page-1" id="ZEO-xs4PBaMquWNd3fKQ">
    <mxGraphModel>
      <root>
        <mxCell id="0" />
        <mxCell id="1" parent="0" />
        <mxCell id="2" value="DatabaseCluster" style="whiteSpace=wrap;strokeWidth=2;" vertex="1" parent="1">
          <mxGeometry x="772" y="473" width="820" height="99" as="geometry" />
        </mxCell>
        <mxCell id="3" value="LoadBalancer" style="whiteSpace=wrap;strokeWidth=2;" vertex="1" parent="1">
          <mxGeometry x="811" y="302" width="731" height="99" as="geometry" />
        </mxCell>
        <mxCell id="4" value="Frontend" style="whiteSpace=wrap;strokeWidth=2;" vertex="1" parent="1">
          <mxGeometry x="1003" y="8" width="398" height="99" as="geometry" />
        </mxCell>
        <mxCell id="5" value="Backend" style="whiteSpace=wrap;strokeWidth=2;" vertex="1" parent="1">
          <mxGeometry x="8" y="8" width="744" height="564" as="geometry" />
        </mxCell>
        <mxCell id="6" value="Database" style="rounded=1;arcSize=40;strokeWidth=2" vertex="1" parent="1">
          <mxGeometry x="511" y="327" width="96" height="49" as="geometry" />
        </mxCell>
        <mxCell id="7" value="Web Server" style="rounded=1;arcSize=40;strokeWidth=2" vertex="1" parent="1">
          <mxGeometry x="405" y="180" width="112" height="49" as="geometry" />
        </mxCell>
        <mxCell id="8" value="Api Server" style="rounded=1;arcSize=40;strokeWidth=2" vertex="1" parent="1">
          <mxGeometry x="43" y="498" width="104" height="49" as="geometry" />
        </mxCell>
        <mxCell id="9" value="Auth Server" style="rounded=1;arcSize=40;strokeWidth=2" vertex="1" parent="1">
          <mxGeometry x="197" y="498" width="115" height="49" as="geometry" />
        </mxCell>
        <mxCell id="10" value="Message Queue" style="rounded=1;arcSize=40;strokeWidth=2" vertex="1" parent="1">
          <mxGeometry x="179" y="33" width="140" height="49" as="geometry" />
        </mxCell>
        <mxCell id="11" value="User Interface" style="rounded=1;arcSize=40;strokeWidth=2" vertex="1" parent="1">
          <mxGeometry x="1038" y="33" width="132" height="49" as="geometry" />
        </mxCell>
        <mxCell id="12" value="Admin Interface" style="rounded=1;arcSize=40;strokeWidth=2" vertex="1" parent="1">
          <mxGeometry x="1220" y="33" width="146" height="49" as="geometry" />
        </mxCell>
        <mxCell id="13" value="Load Balancer" style="rounded=1;arcSize=40;strokeWidth=2" vertex="1" parent="1">
          <mxGeometry x="865" y="327" width="131" height="49" as="geometry" />
        </mxCell>
        <mxCell id="14" value="Database Node 1" style="rounded=1;arcSize=40;strokeWidth=2" vertex="1" parent="1">
          <mxGeometry x="807" y="498" width="150" height="49" as="geometry" />
        </mxCell>
        <mxCell id="15" value="Database Node 2" style="rounded=1;arcSize=40;strokeWidth=2" vertex="1" parent="1">
          <mxGeometry x="1007" y="498" width="150" height="49" as="geometry" />
        </mxCell>
        <mxCell id="16" value="Database Node 3" style="rounded=1;arcSize=40;strokeWidth=2" vertex="1" parent="1">
          <mxGeometry x="1207" y="498" width="150" height="49" as="geometry" />
        </mxCell>
        <mxCell id="17" value="Database Node 4" style="rounded=1;arcSize=40;strokeWidth=2" vertex="1" parent="1">
          <mxGeometry x="1407" y="498" width="150" height="49" as="geometry" />
        </mxCell>
        <mxCell id="18" value="Data sync" style="curved=1;startArrow=none;endArrow=block;exitX=0;exitY=0.74;entryX=0;entryY=0.36;" edge="1" parent="1" source="6" target="14">
          <mxGeometry relative="1" as="geometry">
            <Array as="points">
              <mxPoint x="364" y="401" />
              <mxPoint x="364" y="473" />
            </Array>
          </mxGeometry>
        </mxCell>
        <mxCell id="19" value="Data sync" style="curved=1;startArrow=none;endArrow=block;exitX=0.22;exitY=0.99;entryX=0;entryY=0.38;" edge="1" parent="1" source="6" target="15">
          <mxGeometry relative="1" as="geometry">
            <Array as="points">
              <mxPoint x="505" y="401" />
              <mxPoint x="505" y="473" />
            </Array>
          </mxGeometry>
        </mxCell>
        <mxCell id="20" value="Data sync" style="curved=1;startArrow=none;endArrow=block;exitX=0.7;exitY=0.99;entryX=0;entryY=0.4;" edge="1" parent="1" source="6" target="16">
          <mxGeometry relative="1" as="geometry">
            <Array as="points">
              <mxPoint x="598" y="401" />
              <mxPoint x="598" y="473" />
            </Array>
          </mxGeometry>
        </mxCell>
        <mxCell id="21" value="Data sync" style="curved=1;startArrow=none;endArrow=block;exitX=1;exitY=0.86;entryX=0;entryY=0.41;" edge="1" parent="1" source="6" target="17">
          <mxGeometry relative="1" as="geometry">
            <Array as="points">
              <mxPoint x="691" y="401" />
              <mxPoint x="691" y="473" />
            </Array>
          </mxGeometry>
        </mxCell>
        <mxCell id="22" value="HTTP" style="curved=1;startArrow=none;endArrow=block;exitX=0.83;exitY=0.99;entryX=0;entryY=0.32;" edge="1" parent="1" source="7" target="13">
          <mxGeometry relative="1" as="geometry">
            <Array as="points">
              <mxPoint x="554" y="265" />
              <mxPoint x="554" y="302" />
            </Array>
          </mxGeometry>
        </mxCell>
        <mxCell id="23" value="HTTP" style="curved=1;startArrow=none;endArrow=block;exitX=0.76;exitY=0.01;entryX=0.28;entryY=0.99;" edge="1" parent="1" source="8" target="13">
          <mxGeometry relative="1" as="geometry">
            <Array as="points">
              <mxPoint x="149" y="473" />
              <mxPoint x="149" y="437" />
              <mxPoint x="872" y="401" />
            </Array>
          </mxGeometry>
        </mxCell>
        <mxCell id="24" value="HTTP" style="curved=1;startArrow=none;endArrow=block;exitX=0.64;exitY=0.01;entryX=0.43;entryY=0.99;" edge="1" parent="1" source="9" target="13">
          <mxGeometry relative="1" as="geometry">
            <Array as="points">
              <mxPoint x="286" y="473" />
              <mxPoint x="286" y="437" />
              <mxPoint x="912" y="401" />
            </Array>
          </mxGeometry>
        </mxCell>
        <mxCell id="25" value="TCP" style="curved=1;startArrow=none;endArrow=block;exitX=0;exitY=0.27;entryX=1;entryY=0.91;" edge="1" parent="1" source="13" target="7">
          <mxGeometry relative="1" as="geometry">
            <Array as="points">
              <mxPoint x="629" y="302" />
              <mxPoint x="629" y="265" />
            </Array>
          </mxGeometry>
        </mxCell>
        <mxCell id="26" value="TCP" style="curved=1;startArrow=none;endArrow=block;exitX=0.2;exitY=0.99;entryX=0.38;entryY=0.01;" edge="1" parent="1" source="13" target="8">
          <mxGeometry relative="1" as="geometry">
            <Array as="points">
              <mxPoint x="852" y="401" />
              <mxPoint x="70" y="437" />
              <mxPoint x="70" y="473" />
            </Array>
          </mxGeometry>
        </mxCell>
        <mxCell id="27" value="TCP" style="curved=1;startArrow=none;endArrow=block;exitX=0.35;exitY=0.99;entryX=0.29;entryY=0.01;" edge="1" parent="1" source="13" target="9">
          <mxGeometry relative="1" as="geometry">
            <Array as="points">
              <mxPoint x="892" y="401" />
              <mxPoint x="207" y="437" />
              <mxPoint x="207" y="473" />
            </Array>
          </mxGeometry>
        </mxCell>
        <mxCell id="28" value="Round Robin" style="curved=1;startArrow=none;endArrow=block;exitX=0.5;exitY=0.99;entryX=0.66;entryY=0.01;" edge="1" parent="1" source="13" target="14">
          <mxGeometry relative="1" as="geometry">
            <Array as="points">
              <mxPoint x="932" y="401" />
              <mxPoint x="932" y="473" />
            </Array>
          </mxGeometry>
        </mxCell>
        <mxCell id="29" value="Round Robin" style="curved=1;startArrow=none;endArrow=block;exitX=1;exitY=0.93;entryX=0.5;entryY=0.01;" edge="1" parent="1" source="13" target="15">
          <mxGeometry relative="1" as="geometry">
            <Array as="points">
              <mxPoint x="1082" y="401" />
            </Array>
          </mxGeometry>
        </mxCell>
        <mxCell id="30" value="Round Robin" style="curved=1;startArrow=none;endArrow=block;exitX=1;exitY=0.68;entryX=0.5;entryY=0.01;" edge="1" parent="1" source="13" target="16">
          <mxGeometry relative="1" as="geometry">
            <Array as="points">
              <mxPoint x="1282" y="401" />
            </Array>
          </mxGeometry>
        </mxCell>
        <mxCell id="31" value="Round Robin" style="curved=1;startArrow=none;endArrow=block;exitX=1;exitY=0.61;entryX=0.5;entryY=0.01;" edge="1" parent="1" source="13" target="17">
          <mxGeometry relative="1" as="geometry">
            <Array as="points">
              <mxPoint x="1482" y="401" />
            </Array>
          </mxGeometry>
        </mxCell>
        <mxCell id="32" value="Message" style="curved=1;startArrow=none;endArrow=block;exitX=0.5;exitY=1;entryX=0;entryY=0.17;" edge="1" parent="1" source="10" target="7">
          <mxGeometry relative="1" as="geometry">
            <Array as="points">
              <mxPoint x="249" y="143" />
            </Array>
          </mxGeometry>
        </mxCell>
        <mxCell id="33" value="Request" style="curved=1;startArrow=none;endArrow=block;exitX=0.35;exitY=0.99;entryX=0;entryY=0.34;" edge="1" parent="1" source="7" target="14">
          <mxGeometry relative="1" as="geometry">
            <Array as="points">
              <mxPoint x="420" y="265" />
              <mxPoint x="420" y="473" />
            </Array>
          </mxGeometry>
        </mxCell>
        <mxCell id="34" value="UI" style="curved=1;startArrow=none;endArrow=block;exitX=0.5;exitY=1;entryX=0.5;entryY=0;" edge="1" parent="1" source="11" target="7">
          <mxGeometry relative="1" as="geometry">
            <Array as="points">
              <mxPoint x="1104" y="107" />
              <mxPoint x="461" y="143" />
            </Array>
          </mxGeometry>
        </mxCell>
        <mxCell id="35" value="UI" style="curved=1;startArrow=none;endArrow=block;exitX=0.5;exitY=1;entryX=1;entryY=0.11;" edge="1" parent="1" source="12" target="7">
          <mxGeometry relative="1" as="geometry">
            <Array as="points">
              <mxPoint x="1293" y="107" />
              <mxPoint x="644" y="143" />
            </Array>
          </mxGeometry>
        </mxCell>
      </root>
    </mxGraphModel>
  </diagram>
</mxfile>
